<svg width="50" height="50" viewBox="0 0 50 50" fill="none" xmlns="http://www.w3.org/2000/svg">
<path d="M21.4711 16.8417L21.2984 19.0328C21.2751 19.3275 21.4068 19.6131 21.646 19.7869C21.8852 19.9607 22.1975 19.9976 22.4706 19.8844L24.501 19.043L26.5315 19.8844C26.8032 19.9971 27.1163 19.9611 27.3561 19.7868C27.5953 19.6131 27.7269 19.3274 27.7037 19.0327L27.5309 16.8417L28.9586 15.1706C29.1506 14.9459 29.212 14.6374 29.1206 14.3562C29.0293 14.0751 28.7983 13.8616 28.5108 13.7926L26.3737 13.2798L25.2256 11.4057C25.071 11.1537 24.7967 11 24.501 11C24.2053 11 23.931 11.1537 23.7765 11.4058L22.6284 13.2799L20.4912 13.7927C20.2037 13.8617 19.9728 14.0751 19.8814 14.3563C19.7901 14.6375 19.8514 14.9459 20.0435 15.1707L21.4711 16.8417ZM23.3672 14.85C23.5864 14.7975 23.7757 14.6599 23.8934 14.4677L24.501 13.476L25.1086 14.4677C25.2263 14.6599 25.4156 14.7975 25.6348 14.85L26.7657 15.1214L26.0103 16.0057C25.8639 16.1771 25.7916 16.3996 25.8093 16.6243L25.9007 17.7837L24.8263 17.3385C24.618 17.2522 24.384 17.2522 24.1758 17.3385L23.1014 17.7837L23.1928 16.6243C23.2106 16.3996 23.1382 16.1771 22.9918 16.0057L22.2364 15.1214L23.3672 14.85Z" fill="#2C7961"/>
<path d="M38.9603 17.6981C38.869 17.4169 38.6381 17.2035 38.3506 17.1345L36.2134 16.6217L35.0653 14.7476C34.9108 14.4955 34.6365 14.3418 34.3408 14.3418C34.0452 14.3418 33.7708 14.4955 33.6164 14.7476L32.4682 16.6217L30.3311 17.1345C30.0436 17.2035 29.8127 17.4169 29.7213 17.6981C29.6299 17.9793 29.6913 18.2877 29.8833 18.5125L31.311 20.1835L31.1382 22.3746C31.115 22.6693 31.2466 22.9549 31.4858 23.1287C31.7251 23.3025 32.0373 23.3394 32.3104 23.2262L34.3409 22.3849L36.3713 23.2262C36.6431 23.339 36.9562 23.303 37.1959 23.1287C37.4351 22.9549 37.5668 22.6693 37.5435 22.3746L37.3708 20.1835L38.7984 18.5125C38.9904 18.2877 39.0518 17.9793 38.9603 17.6981ZM35.8501 19.3475C35.7037 19.5188 35.6313 19.7414 35.6491 19.9661L35.7405 21.1255L34.6661 20.6803C34.4579 20.5941 34.2238 20.5941 34.0156 20.6803L32.9411 21.1255L33.0326 19.9662C33.0503 19.7414 32.978 19.5189 32.8315 19.3475L32.0761 18.4632L33.207 18.1919C33.4262 18.1393 33.6155 18.0017 33.7333 17.8096L34.3408 16.8178L34.9484 17.8096C35.0661 18.0018 35.2554 18.1393 35.4746 18.1919L36.6056 18.4633L35.8501 19.3475Z" fill="#2C7961"/>
<path d="M17.5162 23.1287C17.7554 22.9549 17.887 22.6693 17.8638 22.3746L17.691 20.1835L19.1187 18.5125C19.3107 18.2877 19.3721 17.9793 19.2807 17.6981C19.1894 17.4169 18.9584 17.2035 18.6709 17.1345L16.5338 16.6217L15.3857 14.7476C15.2312 14.4955 14.9568 14.3418 14.6612 14.3418C14.3655 14.3418 14.0911 14.4955 13.9367 14.7476L12.7886 16.6217L10.6514 17.1345C10.3639 17.2035 10.133 17.4169 10.0416 17.6981C9.95024 17.9793 10.0116 18.2877 10.2037 18.5125L11.6313 20.1835L11.4585 22.3746C11.4353 22.6693 11.5669 22.9549 11.8061 23.1287C12.0459 23.303 12.359 23.339 12.6308 23.2262L14.6612 22.3849L16.6916 23.2262C16.9647 23.3394 17.2771 23.3025 17.5162 23.1287ZM15.9694 19.9662L16.0608 21.1255L14.9863 20.6803C14.7781 20.5941 14.5441 20.5941 14.3359 20.6803L13.2615 21.1255L13.3529 19.9661C13.3706 19.7414 13.2983 19.5189 13.1519 19.3475L12.3964 18.4633L13.5274 18.1919C13.7466 18.1393 13.9359 18.0017 14.0536 17.8096L14.6612 16.8178L15.2687 17.8096C15.3865 18.0017 15.5758 18.1393 15.795 18.1919L16.9259 18.4632L16.1705 19.3475C16.024 19.5189 15.9517 19.7414 15.9694 19.9662Z" fill="#2C7961"/>
<path d="M34.1834 29.5427C33.6275 28.8812 32.8132 28.5017 31.9491 28.5017H28.7854L29.3388 26.7789C29.445 26.4549 29.4989 26.1187 29.4989 25.7796C29.4989 24.3863 28.6085 23.1596 27.2839 22.7274C26.2959 22.4042 25.2292 22.945 24.9051 23.936L23.6156 27.9294C23.4599 28.4068 23.0844 28.7931 22.6115 28.9627L21.1563 29.484V28.9548C21.1563 28.4856 20.7759 28.1052 20.3066 28.1052H16.002C15.5327 28.1052 15.1523 28.4856 15.1523 28.9548V39.1502C15.1523 39.6194 15.5327 39.9998 16.002 39.9998H20.3066C20.7759 39.9998 21.1563 39.6194 21.1563 39.1502V38.3523C21.5924 38.3887 21.9976 38.5757 22.3101 38.8881C22.9644 39.5495 23.8922 39.9336 24.8237 39.9295H30.4702C32.1822 39.9295 33.6387 38.7055 33.9336 37.0188L34.8234 31.922C34.9723 31.0713 34.739 30.2041 34.1834 29.5427ZM19.457 38.3006H16.8516V29.8045H19.457V38.3006ZM33.1496 31.6294L32.2598 36.7263C32.1074 37.5978 31.3548 38.2303 30.4703 38.2303H24.8238C24.3373 38.2322 23.8542 38.0326 23.5124 37.6873C22.8781 37.0531 22.0465 36.6885 21.1563 36.6499V31.289L23.1847 30.5623C24.1485 30.2166 24.9135 29.4295 25.2318 28.4541L26.521 24.4611C26.5529 24.3638 26.658 24.3106 26.7561 24.3426C27.5432 24.5878 27.9911 25.4745 27.7225 26.2544L26.8111 29.0915C26.6259 29.6186 27.0616 30.2161 27.62 30.2009H31.9491C32.6839 30.183 33.294 30.9084 33.1496 31.6294Z" fill="#2C7961"/>
</svg>
