<svg width="50" height="50" viewBox="0 0 50 50" fill="none" xmlns="http://www.w3.org/2000/svg">
<path d="M35.94 36.9376H16.076C14.3799 36.9376 13 35.5577 13 33.8616V13.9976C13 13.4467 13.4467 13 13.9976 13C14.5484 13 14.9951 13.4467 14.9951 13.9976V33.8616C14.9951 34.4579 15.4797 34.9425 16.076 34.9425H35.94C36.4909 34.9425 36.9376 35.3892 36.9376 35.94C36.9376 36.4909 36.4909 36.9376 35.94 36.9376Z" fill="#2C7961"/>
<path d="M33.9468 32.9473C33.3959 32.9473 32.9492 32.5006 32.9492 31.9497V22.9722C32.9492 22.4213 33.3959 21.9746 33.9468 21.9746C34.4976 21.9746 34.9443 22.4213 34.9443 22.9722V31.9497C34.9443 32.5006 34.4976 32.9473 33.9468 32.9473Z" fill="#2C7961"/>
<path d="M29.9585 32.9473C29.4076 32.9473 28.9609 32.5006 28.9609 31.9497V24.9673C28.9609 24.4164 29.4076 23.9697 29.9585 23.9697C30.5094 23.9697 30.9561 24.4164 30.9561 24.9673V31.9497C30.9561 32.5006 30.5094 32.9473 29.9585 32.9473Z" fill="#2C7961"/>
<path d="M25.9663 32.9513C25.4155 32.9513 24.9688 32.5046 24.9688 31.9538V24.0044C24.9688 23.4535 25.4155 23.0068 25.9663 23.0068C26.5172 23.0068 26.9639 23.4535 26.9639 24.0044V31.9538C26.9639 32.5046 26.5172 32.9513 25.9663 32.9513Z" fill="#2C7961"/>
<path d="M21.978 32.9512C21.4272 32.9512 20.9805 32.5045 20.9805 31.9536V27.9321C20.9805 27.3813 21.4272 26.9346 21.978 26.9346C22.5289 26.9346 22.9756 27.3813 22.9756 27.9321V31.9536C22.9756 32.5045 22.5289 32.9512 21.978 32.9512Z" fill="#2C7961"/>
<path d="M18.021 32.9507C17.4701 32.9507 17.0234 32.504 17.0234 31.9531V30.9556C17.0234 30.4047 17.4701 29.958 18.021 29.958C18.5719 29.958 19.0186 30.4047 19.0186 30.9556V31.9531C19.0186 32.504 18.5719 32.9507 18.021 32.9507Z" fill="#2C7961"/>
<path d="M35.2664 15.0056V18.3175C35.2664 18.8661 34.8175 19.3151 34.2688 19.3151C33.7202 19.3151 33.2713 18.8661 33.2713 18.3175V17.4596L30.7375 20.6618C30.498 20.981 30.0891 21.1107 29.7 21.0109L26.2684 20.0931L18.7168 27.5549C18.5273 27.7444 18.2779 27.8442 18.0186 27.8442C17.7592 27.8442 17.5098 27.7444 17.3103 27.5449C16.9212 27.1559 16.9312 26.5174 17.3203 26.1284L25.2708 18.2776C25.5202 18.0282 25.8893 17.9284 26.2285 18.0182L29.5803 18.916L31.8946 15.9932H30.9569C30.4083 15.9932 29.9594 15.5443 29.9594 14.9956C29.9594 14.4469 30.4083 13.998 30.9569 13.998H34.2589C34.3985 13.998 34.5382 14.028 34.6579 14.0878C34.8873 14.1876 35.0769 14.3771 35.1766 14.6066C35.2365 14.7263 35.2664 14.8659 35.2664 15.0056Z" fill="#2C7961"/>
</svg>
