<svg width="50" height="50" viewBox="0 0 50 50" fill="none" xmlns="http://www.w3.org/2000/svg">
<path d="M34.0752 18.8309L28.4504 13.206C28.3191 13.0747 28.1399 13 27.9531 13H18.1094C16.9463 13 16 13.9463 16 15.1094V34.8906C16 36.0537 16.9463 37 18.1094 37H32.1719C33.335 37 34.2812 36.0537 34.2812 34.8906V19.3281C34.2812 19.1364 34.2008 18.9564 34.0752 18.8309ZM28.6562 15.4006L31.8806 18.625H29.3594C28.9717 18.625 28.6562 18.3096 28.6562 17.9219V15.4006ZM32.1719 35.5938H18.1094C17.7217 35.5938 17.4062 35.2783 17.4062 34.8906V15.1094C17.4062 14.7217 17.7217 14.4062 18.1094 14.4062H27.25V17.9219C27.25 19.085 28.1963 20.0312 29.3594 20.0312H32.875V34.8906C32.875 35.2783 32.5596 35.5938 32.1719 35.5938Z" fill="#2C7961"/>
<path d="M29.3594 22.9375H20.9219C20.5336 22.9375 20.2188 23.2523 20.2188 23.6406C20.2188 24.0289 20.5336 24.3438 20.9219 24.3438H29.3594C29.7477 24.3438 30.0625 24.0289 30.0625 23.6406C30.0625 23.2523 29.7477 22.9375 29.3594 22.9375Z" fill="#2C7961"/>
<path d="M29.3594 25.75H20.9219C20.5336 25.75 20.2188 26.0648 20.2188 26.4531C20.2188 26.8414 20.5336 27.1562 20.9219 27.1562H29.3594C29.7477 27.1562 30.0625 26.8414 30.0625 26.4531C30.0625 26.0648 29.7477 25.75 29.3594 25.75Z" fill="#2C7961"/>
<path d="M29.3594 28.5625H20.9219C20.5336 28.5625 20.2188 28.8773 20.2188 29.2656C20.2188 29.6539 20.5336 29.9688 20.9219 29.9688H29.3594C29.7477 29.9688 30.0625 29.6539 30.0625 29.2656C30.0625 28.8773 29.7477 28.5625 29.3594 28.5625Z" fill="#2C7961"/>
<path d="M26.5469 31.375H20.9219C20.5336 31.375 20.2188 31.6898 20.2188 32.0781C20.2188 32.4664 20.5336 32.7812 20.9219 32.7812H26.5469C26.9352 32.7812 27.25 32.4664 27.25 32.0781C27.25 31.6898 26.9352 31.375 26.5469 31.375Z" fill="#2C7961"/>
</svg>
