<svg width="50" height="50" viewBox="0 0 50 50" fill="none" xmlns="http://www.w3.org/2000/svg">
<path fill-rule="evenodd" clip-rule="evenodd" d="M10.4909 39.998C10.4267 39.9988 10.363 39.9867 10.3035 39.9627C10.244 39.9386 10.1898 39.9029 10.1441 39.8578C10.0985 39.8126 10.0622 39.7589 10.0375 39.6996C10.0127 39.6404 10 39.5768 10 39.5126C10 39.4484 10.0127 39.3848 10.0375 39.3255C10.0622 39.2663 10.0985 39.2125 10.1441 39.1674C10.1898 39.1222 10.244 39.0866 10.3035 39.0625C10.363 39.0384 10.4267 39.0264 10.4909 39.0271H27.1384L27.1359 38.2648H12.2303C12.1011 38.2648 11.9771 38.2134 11.8857 38.122C11.7943 38.0306 11.7429 37.9066 11.7429 37.7774C11.7429 37.6481 11.7943 37.5241 11.8857 37.4327C11.9771 37.3413 12.1011 37.29 12.2303 37.29H13.4823V27.336H12.2303C12.1011 27.336 11.9771 27.2846 11.8857 27.1932C11.7943 27.1018 11.7429 26.9778 11.7429 26.8486C11.7429 26.7193 11.7943 26.5953 11.8857 26.5039C11.9771 26.4125 12.1011 26.3612 12.2303 26.3612H27.1359V25.5969H10.4909V25.5953C10.0115 25.5949 9.82078 24.966 10.2263 24.7021L21.984 17.0283V11.4874C21.984 11.3581 22.0353 11.2342 22.1267 11.1428C22.2181 11.0514 22.3421 11 22.4714 11H28.3464C28.4405 11 28.5326 11.0273 28.6116 11.0785C28.6906 11.1298 28.753 11.2028 28.7914 11.2888C28.8297 11.3748 28.8424 11.47 28.8278 11.563C28.8132 11.6561 28.7719 11.7428 28.709 11.8129L27.8103 13.0113L28.7347 14.2439C28.7881 14.3162 28.8204 14.4018 28.8282 14.4914C28.8359 14.5809 28.8187 14.6708 28.7785 14.7512C28.7383 14.8316 28.6767 14.8993 28.6004 14.9469C28.5242 14.9944 28.4362 15.0199 28.3464 15.0206V15.0225H22.9588V17.0283L31.9236 22.8793C31.9654 22.9064 32.0028 22.9398 32.0344 22.9782H35.4747C35.5393 22.9781 35.6033 22.9909 35.663 23.0159C35.7226 23.0408 35.7767 23.0774 35.822 23.1235L38.861 26.1626C38.9063 26.2078 38.9423 26.2615 38.9667 26.3207C38.9912 26.3798 39.0038 26.4432 39.0037 26.5072V38.9548C39.0024 39.2316 38.8919 39.4967 38.6962 39.6924C38.5005 39.8882 38.2354 39.9987 37.9586 40C28.8027 40 19.6468 39.9993 10.4909 39.998ZM29.7401 36.5085H36.3994C36.5287 36.5085 36.6526 36.4571 36.744 36.3657C36.8354 36.2743 36.8868 36.1504 36.8868 36.0211C36.8868 35.8918 36.8354 35.7679 36.744 35.6765C36.6526 35.585 36.5287 35.5337 36.3994 35.5337H29.7404C29.6111 35.5337 29.4871 35.585 29.3957 35.6765C29.3043 35.7679 29.253 35.8918 29.253 36.0211C29.253 36.1504 29.3043 36.2743 29.3957 36.3657C29.4871 36.4571 29.6111 36.5085 29.7404 36.5085H29.7401ZM29.7401 33.7871H36.3994C36.5287 33.7871 36.6526 33.7357 36.744 33.6443C36.8354 33.5529 36.8868 33.4289 36.8868 33.2997C36.8868 33.1704 36.8354 33.0464 36.744 32.955C36.6526 32.8636 36.5287 32.8123 36.3994 32.8123H29.7404C29.6111 32.8123 29.4871 32.8636 29.3957 32.955C29.3043 33.0464 29.253 33.1704 29.253 33.2997C29.253 33.4289 29.3043 33.5529 29.3957 33.6443C29.4871 33.7357 29.6111 33.7871 29.7404 33.7871H29.7401ZM29.7401 31.0656H36.3994C36.5287 31.0656 36.6526 31.0143 36.744 30.9229C36.8354 30.8315 36.8868 30.7075 36.8868 30.5782C36.8868 30.449 36.8354 30.325 36.744 30.2336C36.6526 30.1422 36.5287 30.0908 36.3994 30.0908H29.7404C29.6111 30.0908 29.4871 30.1422 29.3957 30.2336C29.3043 30.325 29.253 30.449 29.253 30.5782C29.253 30.7075 29.3043 30.8315 29.3957 30.9229C29.4871 31.0143 29.6111 31.0656 29.7404 31.0656H29.7401ZM29.7401 28.3442H36.3994C36.5287 28.3442 36.6526 28.2928 36.744 28.2014C36.8354 28.11 36.8868 27.9861 36.8868 27.8568C36.8868 27.7275 36.8354 27.6036 36.744 27.5122C36.6526 27.4208 36.5287 27.3694 36.3994 27.3694H29.7404C29.6111 27.3694 29.4871 27.4208 29.3957 27.5122C29.3043 27.6036 29.253 27.7275 29.253 27.8568C29.253 27.9861 29.3043 28.11 29.3957 28.2014C29.4871 28.2928 29.6111 28.3442 29.7404 28.3442H29.7401ZM38.0288 26.9946H36.0323C35.7555 26.9933 35.4904 26.8827 35.2947 26.6869C35.099 26.4912 34.9885 26.2261 34.9873 25.9493V23.9529H28.1808C28.1716 23.9527 28.1624 23.9544 28.1538 23.9578C28.1452 23.9612 28.1374 23.9663 28.1309 23.9728C28.1243 23.9793 28.1191 23.9871 28.1157 23.9957C28.1122 24.0042 28.1105 24.0134 28.1106 24.0226V38.9548C28.1108 38.9734 28.1182 38.9912 28.1313 39.0044C28.1445 39.0176 28.1622 39.025 28.1808 39.0252H37.9586C37.9679 39.0254 37.9771 39.0237 37.9857 39.0203C37.9944 39.0168 38.0022 39.0116 38.0088 39.0051C38.0153 38.9985 38.0205 38.9906 38.0239 38.982C38.0274 38.9734 38.029 38.9641 38.0288 38.9548V26.9946ZM35.9621 24.6422V25.9493C35.9618 25.9586 35.9634 25.9678 35.9669 25.9765C35.9703 25.9851 35.9755 25.993 35.982 25.9996C35.9886 26.0062 35.9964 26.0114 36.0051 26.0149C36.0137 26.0184 36.023 26.0201 36.0323 26.0199H37.3396L35.9621 24.6422ZM28.1808 22.9782H30.2973L22.4714 17.8705L12.1266 24.6221H27.1359V24.0226C27.1373 23.746 27.2479 23.4811 27.4435 23.2855C27.6392 23.0899 27.9042 22.9795 28.1808 22.9782ZM27.1359 37.29V27.336H26.3725V37.29H27.1359ZM27.3741 11.9748H22.9589V14.0477H27.3741L26.8206 13.3098C26.7551 13.2257 26.7191 13.1224 26.7181 13.0158C26.7171 12.9092 26.7512 12.8052 26.8152 12.72L27.3741 11.9748ZM14.4571 37.29H15.2217V27.336H14.4571V37.29ZM16.1965 37.29H18.5705V27.336H16.1965V37.29ZM19.5451 37.29H20.3097V27.336H19.5453V37.29H19.5451ZM21.2845 37.29H23.6583V27.336H21.2845V37.29ZM24.6331 37.29H25.3977V27.336H24.6331V37.29ZM22.4714 23.3176C22.7626 23.3176 23.0473 23.2313 23.2895 23.0696C23.5317 22.9078 23.7204 22.6779 23.8319 22.4088C23.9434 22.1398 23.9726 21.8437 23.9158 21.5581C23.859 21.2724 23.7188 21.01 23.5129 20.8041C23.307 20.5981 23.0447 20.4579 22.759 20.401C22.4734 20.3442 22.1773 20.3733 21.9083 20.4848C21.6392 20.5962 21.4092 20.7849 21.2474 21.0271C21.0856 21.2692 20.9992 21.5539 20.9992 21.8451C21.0002 22.2353 21.1556 22.6092 21.4315 22.8851C21.7073 23.161 22.0812 23.3165 22.4714 23.3176ZM22.4714 24.2924C22.9554 24.2924 23.4286 24.1489 23.831 23.8801C24.2335 23.6112 24.5472 23.229 24.7325 22.7819C24.9178 22.3347 24.9663 21.8426 24.8719 21.3679C24.7775 20.8932 24.5444 20.4571 24.2022 20.1148C23.86 19.7725 23.4239 19.5394 22.9492 19.445C22.4745 19.3505 21.9824 19.399 21.5352 19.5842C21.088 19.7694 20.7058 20.0831 20.4369 20.4855C20.168 20.888 20.0245 21.3611 20.0245 21.8451C20.0255 22.4938 20.2836 23.1156 20.7423 23.5743C21.2009 24.033 21.8227 24.2912 22.4714 24.2924Z" fill="#2C7961"/>
</svg>
